<svg id="图层_1" data-name="图层 1" xmlns="http://www.w3.org/2000/svg" viewBox="0 0 12.91 17.91"><defs><style>.cls-1{fill:#a09f9f;}.cls-2{fill:none;stroke:#a09f9f;stroke-linecap:round;stroke-linejoin:round;stroke-width:2px;}</style></defs><title>delete</title><path class="cls-1" d="M302.86,249.14a.14.14,0,0,1,.14.14v11a.14.14,0,0,1-.14.14h-7.72a.14.14,0,0,1-.14-.14v-11a.14.14,0,0,1,.14-.14h7.72m0-2h-7.72a2.14,2.14,0,0,0-2.14,2.14v11a2.14,2.14,0,0,0,2.14,2.14h7.72a2.14,2.14,0,0,0,2.14-2.14v-11a2.14,2.14,0,0,0-2.14-2.14Z" transform="translate(-292.55 -244.5)"/><line class="cls-2" x1="1" y1="1" x2="11.91" y2="1"/><line class="cls-2" x1="4.7" y1="3.73" x2="4.7" y2="16.82"/><line class="cls-2" x1="8.21" y1="3.73" x2="8.21" y2="16.82"/></svg>